<svg width="24" height="24" viewBox="0 0 24 24" fill="none" xmlns="http://www.w3.org/2000/svg">
<path d="M14.7 6.3C14.5168 6.48692 14.4141 6.73824 14.4141 7C14.4141 7.26175 14.5168 7.51307 14.7 7.7L16.3 9.3C16.4869 9.48322 16.7382 9.58585 17 9.58585C17.2617 9.58585 17.5131 9.48322 17.7 9.3L21.47 5.53C21.9728 6.64118 22.1251 7.87923 21.9065 9.07914C21.6878 10.2791 21.1087 11.3838 20.2463 12.2463C19.3838 13.1087 18.279 13.6878 17.0791 13.9065C15.8792 14.1251 14.6412 13.9728 13.53 13.47L6.61999 20.38C6.22217 20.7778 5.6826 21.0013 5.11999 21.0013C4.55738 21.0013 4.01782 20.7778 3.61999 20.38C3.22217 19.9822 2.99867 19.4426 2.99867 18.88C2.99867 18.3174 3.22217 17.7778 3.61999 17.38L10.53 10.47C10.0272 9.35881 9.87491 8.12076 10.0935 6.92085C10.3122 5.72094 10.8913 4.61615 11.7537 3.75372C12.6161 2.89128 13.7209 2.31216 14.9208 2.09354C16.1208 1.87491 17.3588 2.02716 18.47 2.52999L14.71 6.29L14.7 6.3Z" stroke="#20A2B9" stroke-width="2" stroke-linecap="round" stroke-linejoin="round"/>
</svg>
